<svg width="117" height="30" viewBox="0 0 117 30" fill="none" xmlns="http://www.w3.org/2000/svg"><rect width="30" height="30" rx="15" fill="#484D7C"/><path d="M15.006 25.6506C13.9737 25.6506 12.9585 25.2315 12.2307 24.5103C11.5029 23.7891 11.0883 22.7832 11.0883 21.7686C11.0883 20.754 11.5029 19.7478 12.2307 19.0266C12.9585 18.3054 13.9737 17.8947 15.006 17.8947C16.0299 17.8947 17.0364 18.3057 17.7642 19.0266C18.492 19.7475 18.915 20.754 18.915 21.7686C18.915 22.7832 18.492 23.7891 17.7642 24.5103C17.0364 25.2315 16.0299 25.6506 15.006 25.6506ZM8.49928 18.6495C8.11858 18.6495 7.73788 18.507 7.44178 18.2136L5.06428 15.8157C4.48048 15.2283 4.54798 14.34 5.03908 13.7193C5.05311 13.7053 5.07215 13.6946 5.08614 13.6805L11.5455 7.18771L13.9317 4.78981C14.5071 4.20271 15.4629 4.20271 16.0467 4.78981L18.4245 7.18771L24.9141 13.7025C25.4979 14.2896 25.4979 15.2283 24.9141 15.8157L22.5282 18.2136C22.2489 18.4986 21.8682 18.6327 21.4962 18.6414C21.4878 18.6414 21.4791 18.6495 21.4707 18.6495C21.0897 18.6495 20.7009 18.507 20.4132 18.2136C17.4233 15.2049 12.5551 15.2046 9.56548 18.2136C9.26908 18.507 8.88838 18.6495 8.49928 18.6495Z" fill="white"/><path d="M41.12 22H39V8H41.12V22ZM47.7611 22.26C46.8011 22.26 45.9544 22.0533 45.2211 21.64C44.5011 21.2133 43.9344 20.6267 43.5211 19.88C43.1211 19.12 42.9211 18.24 42.9211 17.24C42.9211 16.0667 43.1278 15.0867 43.5411 14.3C43.9544 13.5 44.5211 12.9 45.2411 12.5C45.9744 12.1 46.8144 11.9 47.7611 11.9C48.7078 11.9 49.5411 12.1 50.2611 12.5C50.9944 12.9 51.5678 13.5 51.9811 14.3C52.3944 15.0867 52.6011 16.0667 52.6011 17.24C52.6011 18.24 52.3944 19.12 51.9811 19.88C51.5678 20.6267 50.9944 21.2133 50.2611 21.64C49.5411 22.0533 48.7078 22.26 47.7611 22.26ZM47.7611 20.22C48.3611 20.22 48.8678 20.08 49.2811 19.8C49.6944 19.52 50.0078 19.1533 50.2211 18.7C50.4478 18.2467 50.5611 17.76 50.5611 17.24C50.5611 16.3067 50.3211 15.5267 49.8411 14.9C49.3611 14.26 48.6678 13.94 47.7611 13.94C46.8678 13.94 46.1744 14.2533 45.6811 14.88C45.2011 15.5067 44.9611 16.2933 44.9611 17.24C44.9611 17.7733 45.0678 18.2667 45.2811 18.72C45.5078 19.1733 45.8278 19.54 46.2411 19.82C46.6544 20.0867 47.1611 20.22 47.7611 20.22ZM58.5595 26.08C58.1195 26.08 57.6662 26.0067 57.1995 25.86C56.7462 25.7267 56.3195 25.54 55.9195 25.3C55.5329 25.0733 55.2262 24.82 54.9995 24.54L56.3595 23.1C56.7462 23.4467 57.1862 23.7 57.6795 23.86C58.1862 24.02 58.6595 24.06 59.0995 23.98C59.5395 23.9 59.8729 23.6667 60.0995 23.28C60.2462 23.04 60.3462 22.7733 60.3995 22.48C60.4529 22.1867 60.4795 21.8533 60.4795 21.48C59.6795 21.9333 58.8862 22.1267 58.0995 22.06C57.3129 22.0067 56.5929 21.76 55.9395 21.32C55.2995 20.8667 54.7862 20.28 54.3995 19.56C54.0262 18.8267 53.8329 18.0133 53.8195 17.12C53.8062 16.08 53.9795 15.18 54.3395 14.42C54.6995 13.66 55.1929 13.0667 55.8195 12.64C56.4595 12.2133 57.1795 11.98 57.9795 11.94C58.7929 11.8867 59.6462 12.06 60.5395 12.46V12H62.6595V21.56C62.6595 22.9333 62.3062 24.0267 61.5995 24.84C60.9062 25.6667 59.8929 26.08 58.5595 26.08ZM55.9195 17.12C55.9195 17.7333 56.0529 18.2533 56.3195 18.68C56.5995 19.0933 56.9595 19.4067 57.3995 19.62C57.8529 19.82 58.3462 19.9133 58.8795 19.9C59.4262 19.8867 59.9795 19.7533 60.5395 19.5V14.52C59.6729 14.0667 58.8862 13.8733 58.1795 13.94C57.4862 13.9933 56.9329 14.2933 56.5195 14.84C56.1195 15.3733 55.9195 16.1333 55.9195 17.12ZM72.8841 20.64C72.2041 21.28 71.4774 21.72 70.7041 21.96C69.9441 22.1867 69.1907 22.2333 68.4441 22.1C67.7107 21.98 67.0441 21.7 66.4441 21.26C65.8441 20.8067 65.3641 20.22 65.0041 19.5C64.6441 18.78 64.4641 17.94 64.4641 16.98C64.4641 16.0067 64.6374 15.16 64.9841 14.44C65.3441 13.72 65.8241 13.1533 66.4241 12.74C67.0241 12.3133 67.6907 12.0467 68.4241 11.94C69.1707 11.8333 69.9307 11.9067 70.7041 12.16C71.4907 12.4 72.2307 12.8333 72.9241 13.46L71.5241 14.98C71.0574 14.4867 70.5441 14.1867 69.9841 14.08C69.4241 13.96 68.8841 14 68.3641 14.2C67.8574 14.4 67.4374 14.74 67.1041 15.22C66.7707 15.7 66.6041 16.2867 66.6041 16.98C66.6041 17.7267 66.7707 18.3467 67.1041 18.84C67.4374 19.3333 67.8574 19.6867 68.3641 19.9C68.8841 20.1 69.4307 20.14 70.0041 20.02C70.5907 19.8867 71.1241 19.5733 71.6041 19.08L72.8841 20.64ZM83.3827 22H81.2627V16.18C81.2627 15.42 81.056 14.8667 80.6427 14.52C80.2427 14.1733 79.7027 14 79.0227 14C78.6227 14 78.2627 14.0933 77.9427 14.28C77.6227 14.4533 77.3627 14.6733 77.1627 14.94C76.976 15.2067 76.8827 15.48 76.8827 15.76V22H74.7627V8H76.8827V12.68C77.216 12.3733 77.6227 12.1667 78.1027 12.06C78.5827 11.94 79.0627 11.9 79.5427 11.94C80.7827 12.06 81.7293 12.5 82.3827 13.26C83.0493 14.0067 83.3827 14.98 83.3827 16.18V22ZM86.5114 10.78C86.1514 10.78 85.8381 10.6533 85.5714 10.4C85.3181 10.1333 85.1914 9.81333 85.1914 9.44C85.1914 9.08 85.3181 8.77333 85.5714 8.52C85.8381 8.26667 86.1514 8.14 86.5114 8.14C86.8847 8.14 87.1981 8.26667 87.4514 8.52C87.7047 8.77333 87.8314 9.08 87.8314 9.44C87.8314 9.81333 87.7047 10.1333 87.4514 10.4C87.1981 10.6533 86.8847 10.78 86.5114 10.78ZM87.5114 22H85.5314V12H87.5114V22ZM105.12 22H103V16.2C103 15.4267 102.807 14.8733 102.42 14.54C102.047 14.1933 101.54 14.02 100.9 14.02C100.247 14.02 99.6932 14.1933 99.2398 14.54C98.7865 14.8733 98.5598 15.4267 98.5598 16.2V22H96.4998V16.2C96.4998 15.4133 96.2865 14.86 95.8598 14.54C95.4465 14.2067 94.9398 14.04 94.3398 14.04C93.9532 14.04 93.5798 14.1133 93.2198 14.26C92.8598 14.3933 92.5598 14.62 92.3198 14.94C92.0798 15.2467 91.9598 15.6667 91.9598 16.2V22H89.8398V12H91.9598V12.84C92.2798 12.5067 92.6598 12.2667 93.0998 12.12C93.5398 11.9733 93.9798 11.9 94.4198 11.9C95.0465 11.9 95.6465 12.02 96.2198 12.26C96.8065 12.4867 97.2865 12.84 97.6598 13.32C98.0065 12.84 98.4932 12.4867 99.1198 12.26C99.7598 12.02 100.393 11.9 101.02 11.9C101.753 11.9 102.427 12.08 103.04 12.44C103.667 12.7867 104.167 13.28 104.54 13.92C104.927 14.56 105.12 15.32 105.12 16.2V22ZM109.03 26H106.91V12H109.03V12.56C109.857 12.0933 110.677 11.88 111.49 11.92C112.317 11.96 113.07 12.2067 113.75 12.66C114.43 13.1 114.977 13.7067 115.39 14.48C115.803 15.2533 116.01 16.1467 116.01 17.16C116.01 18.0933 115.81 18.9333 115.41 19.68C115.01 20.4267 114.463 21.02 113.77 21.46C113.077 21.9 112.297 22.1267 111.43 22.14C111.11 22.14 110.71 22.1 110.23 22.02C109.75 21.9533 109.35 21.8133 109.03 21.6V26ZM109.03 19.56C109.857 19.9733 110.637 20.14 111.37 20.06C112.117 19.98 112.717 19.6933 113.17 19.2C113.623 18.6933 113.85 18.0133 113.85 17.16C113.85 16.44 113.71 15.84 113.43 15.36C113.163 14.8667 112.797 14.5067 112.33 14.28C111.863 14.04 111.343 13.9467 110.77 14C110.21 14.0533 109.63 14.26 109.03 14.62V19.56Z" fill="#484D7C"/></svg>
