<svg width="94" height="30" viewBox="0 0 94 30" fill="none" xmlns="http://www.w3.org/2000/svg"> <rect width="30" height="30" rx="15" fill="#484D7C"/> <path d="M15.006 25.6506C13.9737 25.6506 12.9585 25.2315 12.2307 24.5103C11.5029 23.7891 11.0883 22.7832 11.0883 21.7686C11.0883 20.754 11.5029 19.7478 12.2307 19.0266C12.9585 18.3054 13.9737 17.8947 15.006 17.8947C16.0299 17.8947 17.0364 18.3057 17.7642 19.0266C18.492 19.7475 18.915 20.754 18.915 21.7686C18.915 22.7832 18.492 23.7891 17.7642 24.5103C17.0364 25.2315 16.0299 25.6506 15.006 25.6506ZM8.49928 18.6495C8.11858 18.6495 7.73788 18.507 7.44178 18.2136L5.06428 15.8157C4.48048 15.2283 4.54798 14.34 5.03908 13.7193C5.05311 13.7053 5.07215 13.6946 5.08614 13.6805L11.5455 7.18771L13.9317 4.78981C14.5071 4.20271 15.4629 4.20271 16.0467 4.78981L18.4245 7.18771L24.9141 13.7025C25.4979 14.2896 25.4979 15.2283 24.9141 15.8157L22.5282 18.2136C22.2489 18.4986 21.8682 18.6327 21.4962 18.6414C21.4878 18.6414 21.4791 18.6495 21.4707 18.6495C21.0897 18.6495 20.7009 18.507 20.4132 18.2136C17.4233 15.2049 12.5551 15.2046 9.56548 18.2136C9.26908 18.507 8.88838 18.6495 8.49928 18.6495Z" fill="white"/> <path d="M40.184 20H38.7V10.2H40.184V20ZM44.8328 20.182C44.1608 20.182 43.5681 20.0373 43.0548 19.748C42.5508 19.4493 42.1541 19.0387 41.8648 18.516C41.5848 17.984 41.4448 17.368 41.4448 16.668C41.4448 15.8467 41.5894 15.1607 41.8788 14.61C42.1681 14.05 42.5648 13.63 43.0688 13.35C43.5821 13.07 44.1701 12.93 44.8328 12.93C45.4954 12.93 46.0788 13.07 46.5828 13.35C47.0961 13.63 47.4974 14.05 47.7868 14.61C48.0761 15.1607 48.2208 15.8467 48.2208 16.668C48.2208 17.368 48.0761 17.984 47.7868 18.516C47.4974 19.0387 47.0961 19.4493 46.5828 19.748C46.0788 20.0373 45.4954 20.182 44.8328 20.182ZM44.8328 18.754C45.2528 18.754 45.6074 18.656 45.8968 18.46C46.1861 18.264 46.4054 18.0073 46.5548 17.69C46.7134 17.3727 46.7928 17.032 46.7928 16.668C46.7928 16.0147 46.6248 15.4687 46.2888 15.03C45.9528 14.582 45.4674 14.358 44.8328 14.358C44.2074 14.358 43.7221 14.5773 43.3768 15.016C43.0408 15.4547 42.8728 16.0053 42.8728 16.668C42.8728 17.0413 42.9474 17.3867 43.0968 17.704C43.2554 18.0213 43.4794 18.278 43.7688 18.474C44.0581 18.6607 44.4128 18.754 44.8328 18.754ZM52.3917 22.856C52.0837 22.856 51.7663 22.8047 51.4397 22.702C51.1223 22.6087 50.8237 22.478 50.5437 22.31C50.273 22.1513 50.0583 21.974 49.8997 21.778L50.8517 20.77C51.1223 21.0127 51.4303 21.19 51.7757 21.302C52.1303 21.414 52.4617 21.442 52.7697 21.386C53.0777 21.33 53.311 21.1667 53.4697 20.896C53.5723 20.728 53.6423 20.5413 53.6797 20.336C53.717 20.1307 53.7357 19.8973 53.7357 19.636C53.1757 19.9533 52.6203 20.0887 52.0697 20.042C51.519 20.0047 51.015 19.832 50.5577 19.524C50.1097 19.2067 49.7503 18.796 49.4797 18.292C49.2183 17.7787 49.083 17.2093 49.0737 16.584C49.0643 15.856 49.1857 15.226 49.4377 14.694C49.6897 14.162 50.035 13.7467 50.4737 13.448C50.9217 13.1493 51.4257 12.986 51.9857 12.958C52.555 12.9207 53.1523 13.042 53.7777 13.322V13H55.2617V19.692C55.2617 20.6533 55.0143 21.4187 54.5197 21.988C54.0343 22.5667 53.325 22.856 52.3917 22.856ZM50.5437 16.584C50.5437 17.0133 50.637 17.3773 50.8237 17.676C51.0197 17.9653 51.2717 18.1847 51.5797 18.334C51.897 18.474 52.2423 18.5393 52.6157 18.53C52.9983 18.5207 53.3857 18.4273 53.7777 18.25V14.764C53.171 14.4467 52.6203 14.3113 52.1257 14.358C51.6403 14.3953 51.253 14.6053 50.9637 14.988C50.6837 15.3613 50.5437 15.8933 50.5437 16.584ZM62.4188 19.048C61.9428 19.496 61.4342 19.804 60.8928 19.972C60.3608 20.1307 59.8335 20.1633 59.3108 20.07C58.7975 19.986 58.3308 19.79 57.9108 19.482C57.4908 19.1647 57.1548 18.754 56.9028 18.25C56.6508 17.746 56.5248 17.158 56.5248 16.486C56.5248 15.8047 56.6462 15.212 56.8888 14.708C57.1408 14.204 57.4768 13.8073 57.8968 13.518C58.3168 13.2193 58.7835 13.0327 59.2968 12.958C59.8195 12.8833 60.3515 12.9347 60.8928 13.112C61.4435 13.28 61.9615 13.5833 62.4468 14.022L61.4668 15.086C61.1402 14.7407 60.7808 14.5307 60.3888 14.456C59.9968 14.372 59.6188 14.4 59.2548 14.54C58.9002 14.68 58.6062 14.918 58.3728 15.254C58.1395 15.59 58.0228 16.0007 58.0228 16.486C58.0228 17.0087 58.1395 17.4427 58.3728 17.788C58.6062 18.1333 58.9002 18.3807 59.2548 18.53C59.6188 18.67 60.0015 18.698 60.4028 18.614C60.8135 18.5207 61.1868 18.3013 61.5228 17.956L62.4188 19.048ZM69.7679 20H68.2839V15.926C68.2839 15.394 68.1392 15.0067 67.8499 14.764C67.5699 14.5213 67.1919 14.4 66.7159 14.4C66.4359 14.4 66.1839 14.4653 65.9599 14.596C65.7359 14.7173 65.5539 14.8713 65.4139 15.058C65.2832 15.2447 65.2179 15.436 65.2179 15.632V20H63.7339V10.2H65.2179V13.476C65.4512 13.2613 65.7359 13.1167 66.0719 13.042C66.4079 12.958 66.7439 12.93 67.0799 12.958C67.9479 13.042 68.6105 13.35 69.0679 13.882C69.5345 14.4047 69.7679 15.086 69.7679 15.926V20ZM71.958 12.146C71.706 12.146 71.4867 12.0573 71.3 11.88C71.1227 11.6933 71.034 11.4693 71.034 11.208C71.034 10.956 71.1227 10.7413 71.3 10.564C71.4867 10.3867 71.706 10.298 71.958 10.298C72.2193 10.298 72.4387 10.3867 72.616 10.564C72.7933 10.7413 72.882 10.956 72.882 11.208C72.882 11.4693 72.7933 11.6933 72.616 11.88C72.4387 12.0573 72.2193 12.146 71.958 12.146ZM72.658 20H71.272V13H72.658V20ZM84.9839 20H83.4999V15.94C83.4999 15.3987 83.3646 15.0113 83.0939 14.778C82.8326 14.5353 82.4779 14.414 82.0299 14.414C81.5726 14.414 81.1852 14.5353 80.8679 14.778C80.5506 15.0113 80.3919 15.3987 80.3919 15.94V20H78.9499V15.94C78.9499 15.3893 78.8006 15.002 78.5019 14.778C78.2126 14.5447 77.8579 14.428 77.4379 14.428C77.1672 14.428 76.9059 14.4793 76.6539 14.582C76.4019 14.6753 76.1919 14.834 76.0239 15.058C75.8559 15.2727 75.7719 15.5667 75.7719 15.94V20H74.2879V13H75.7719V13.588C75.9959 13.3547 76.2619 13.1867 76.5699 13.084C76.8779 12.9813 77.1859 12.93 77.4939 12.93C77.9326 12.93 78.3526 13.014 78.7539 13.182C79.1646 13.3407 79.5006 13.588 79.7619 13.924C80.0046 13.588 80.3452 13.3407 80.7839 13.182C81.2319 13.014 81.6752 12.93 82.1139 12.93C82.6272 12.93 83.0986 13.056 83.5279 13.308C83.9666 13.5507 84.3166 13.896 84.5779 14.344C84.8486 14.792 84.9839 15.324 84.9839 15.94V20ZM87.7211 22.8H86.2371V13H87.7211V13.392C88.2998 13.0653 88.8738 12.916 89.4431 12.944C90.0218 12.972 90.5491 13.1447 91.0251 13.462C91.5011 13.77 91.8838 14.1947 92.1731 14.736C92.4624 15.2773 92.6071 15.9027 92.6071 16.612C92.6071 17.2653 92.4671 17.8533 92.1871 18.376C91.9071 18.8987 91.5244 19.314 91.0391 19.622C90.5538 19.93 90.0078 20.0887 89.4011 20.098C89.1771 20.098 88.8971 20.07 88.5611 20.014C88.2251 19.9673 87.9451 19.8693 87.7211 19.72V22.8ZM87.7211 18.292C88.2998 18.5813 88.8458 18.698 89.3591 18.642C89.8818 18.586 90.3018 18.3853 90.6191 18.04C90.9364 17.6853 91.0951 17.2093 91.0951 16.612C91.0951 16.108 90.9971 15.688 90.8011 15.352C90.6144 15.0067 90.3578 14.7547 90.0311 14.596C89.7044 14.428 89.3404 14.3627 88.9391 14.4C88.5471 14.4373 88.1411 14.582 87.7211 14.834V18.292Z" fill="#484D7C"/> </svg>
