<svg width="300" height="300" viewBox="0 0 300 300" fill="none" xmlns="http://www.w3.org/2000/svg">
<rect width="300" height="300" rx="150" fill="#484D7C"/>
<path d="M150.06 256.506C139.737 256.506 129.585 252.315 122.307 245.103C115.029 237.891 110.883 227.832 110.883 217.686C110.883 207.54 115.029 197.478 122.307 190.266C129.585 183.054 139.737 178.947 150.06 178.947C160.299 178.947 170.364 183.057 177.642 190.266C184.92 197.475 189.15 207.54 189.15 217.686C189.15 227.832 184.92 237.891 177.642 245.103C170.364 252.315 160.299 256.506 150.06 256.506ZM84.993 186.495C81.186 186.495 77.379 185.07 74.418 182.136L50.643 158.157C44.805 152.283 45.48 143.4 50.391 137.193C50.5313 137.053 50.7217 136.946 50.8616 136.805L115.455 71.877L139.317 47.898C145.071 42.027 154.629 42.027 160.467 47.898L184.245 71.877L249.141 137.025C254.979 142.896 254.979 152.283 249.141 158.157L225.282 182.136C222.489 184.986 218.682 186.327 214.962 186.414C214.878 186.414 214.791 186.495 214.707 186.495C210.897 186.495 207.009 185.07 204.132 182.136C174.233 152.048 125.552 152.046 95.655 182.136C92.691 185.07 88.884 186.495 84.993 186.495Z" fill="white"/>
</svg>
